<svg viewBox="0 0 512.001 512" className='eye' stroke="currentColor" fill="currentColor" xmlns="http://www.w3.org/2000/svg"><path d="m255.640625 246c-5.519531 0-10 4.480469-10 10s4.480469 10 10 10 10-4.480469 10-10-4.480469-10-10-10zm0 0"/><path d="m509.769531 262.996094c2.976563-3.667969 2.976563-8.921875 0-12.589844-1.1875-1.464844-29.601562-36.296875-74.917969-71.59375-51.617187-40.207031-113.949218-72.113281-178.851562-72.113281-64.910156 0-127.246094 31.914062-178.851562 72.113281-45.3125 35.296875-73.730469 70.128906-74.917969 71.59375-2.972657 3.667969-2.972657 8.917969 0 12.589844 1.1875 1.464844 29.605469 36.296875 74.917969 71.59375 51.617187 40.207031 113.949218 72.109375 178.851562 72.109375 64.898438 0 127.230469-31.898438 178.851562-72.109375 45.3125-35.296875 73.730469-70.128906 74.917969-71.59375zm-253.769531 123.703125c-65.492188 0-126.535156-36.769531-166.210938-67.613281-32.527343-25.289063-56.445312-50.875-66.617187-62.386719 10.175781-11.511719 34.09375-37.097657 66.617187-62.382813 39.675782-30.847656 100.71875-67.617187 166.210938-67.617187s126.535156 36.769531 166.210938 67.617187c32.523437 25.285156 56.445312 50.871094 66.617187 62.382813-10.171875 11.515625-34.09375 37.097656-66.617187 62.386719-39.675782 30.84375-100.71875 67.613281-166.210938 67.613281zm0 0"/><path d="m255.640625 146c-60.652344 0-110 49.347656-110 110 0 60.65625 49.347656 110 110 110s110-49.34375 110-110c0-60.652344-49.347656-110-110-110zm0 200c-49.625 0-90-40.375-90-90s40.375-90 90-90 90 40.375 90 90-40.375 90-90 90zm0 0"/><path d="m255.640625 206c-27.570313 0-50 22.429688-50 50s22.429687 50 50 50 50-22.429688 50-50-22.429687-50-50-50zm0 80c-16.542969 0-30-13.457031-30-30s13.457031-30 30-30 30 13.457031 30 30-13.457031 30-30 30zm0 0"/><path d="m265.640625 56v-46c0-5.523438-4.476563-10-10-10s-10 4.476562-10 10v46c0 5.523438 4.476563 10 10 10s10-4.476562 10-10zm0 0"/><path d="m245.640625 456v46c0 5.523438 4.476563 10 10 10s10-4.476562 10-10v-46c0-5.523438-4.476563-10-10-10s-10 4.476562-10 10zm0 0"/><path d="m160.640625 91.460938c4.78125-2.761719 6.421875-8.875 3.660156-13.660157l-20-34.648437c-2.761719-4.785156-8.875-6.429688-13.660156-3.664063-4.78125 2.761719-6.421875 8.875-3.660156 13.660157l20 34.648437c2.75 4.769531 8.863281 6.433594 13.660156 3.664063zm0 0"/><path d="m350.640625 420.550781c-4.78125 2.761719-6.421875 8.875-3.660156 13.660157l20 34.640624c2.773437 4.804688 8.898437 6.40625 13.660156 3.660157 4.78125-2.761719 6.421875-8.878907 3.660156-13.660157l-20-34.640624c-2.761719-4.78125-8.878906-6.421876-13.660156-3.660157zm0 0"/><path d="m364.300781 87.800781 20-34.652343c2.761719-4.78125 1.121094-10.898438-3.660156-13.660157-4.789063-2.761719-10.898437-1.121093-13.660156 3.664063l-20 34.648437c-2.761719 4.785157-1.121094 10.898438 3.660156 13.660157 4.761719 2.75 10.886719 1.140624 13.660156-3.660157zm0 0"/><path d="m146.980469 424.210938-20 34.640624c-2.761719 4.78125-1.125 10.898438 3.660156 13.660157 4.765625 2.75 10.886719 1.136719 13.660156-3.660157l20-34.640624c2.761719-4.785157 1.121094-10.898438-3.660156-13.660157-4.785156-2.761719-10.898437-1.125-13.660156 3.660157zm0 0"/></svg>